<?xml version="1.0" encoding="UTF-8" standalone="no"?>
<!-- Created with Inkscape (http://www.inkscape.org/) -->

<svg
   width="500"
   height="500"
   viewBox="0 0 500 500"
   version="1.1"
   id="svg1"
   xml:space="preserve"
   inkscape:version="1.4.3 (fcd0343856, 2026-01-01)"
   sodipodi:docname="annoying_dog_2_with_black_background.svg"
   inkscape:export-filename="500x500.svg"
   inkscape:export-xdpi="1000"
   inkscape:export-ydpi="1000"
   xmlns:inkscape="http://www.inkscape.org/namespaces/inkscape"
   xmlns:sodipodi="http://sodipodi.sourceforge.net/DTD/sodipodi-0.dtd"
   xmlns="http://www.w3.org/2000/svg"
   xmlns:svg="http://www.w3.org/2000/svg"><sodipodi:namedview
     id="namedview1"
     pagecolor="#000000"
     bordercolor="#000000"
     borderopacity="0.24705882"
     inkscape:showpageshadow="2"
     inkscape:pageopacity="0.0"
     inkscape:pagecheckerboard="0"
     inkscape:deskcolor="#d1d1d1"
     inkscape:document-units="px"
     inkscape:zoom="1"
     inkscape:cx="297"
     inkscape:cy="337"
     inkscape:window-width="1920"
     inkscape:window-height="1043"
     inkscape:window-x="0"
     inkscape:window-y="0"
     inkscape:window-maximized="1"
     inkscape:current-layer="layer1" /><defs
     id="defs1" /><rect
     style="fill:#000000;fill-opacity:1;stroke-width:9.70285"
     id="rect3"
     width="500.6188"
     height="502.79556"
     x="-0.76776707"
     y="-0.12132078" /><g
     inkscape:label="Layer 1"
     inkscape:groupmode="layer"
     id="layer1"><path
       style="fill:#ffffff;fill-opacity:1;stroke-width:8.11795"
       d="m 244.14486,609.72747 v -48.70781 h -32.47185 -32.47189 v 16.23593 16.23593 h -16.23591 -16.23593 v 16.23595 16.23591 h -16.23596 -16.23591 v -48.70779 -48.7078 H 98.02148 81.785534 V 366.18849 203.82918 h 16.235946 16.23593 v -48.7078 -48.7078 h 16.23591 16.23596 v 16.23591 16.23595 h 16.23593 16.23591 v -16.23595 -16.23591 h 64.94374 64.94373 v 16.23591 16.23595 h 16.23592 16.23594 v -16.23595 -16.23591 h 16.23594 16.23591 v 32.47186 32.47185 h 16.23594 16.23594 v 32.47189 32.47185 h 32.47186 32.47185 v 16.23593 16.23592 h 32.47188 32.47186 v 16.23595 16.23592 h 48.70778 48.70781 v -32.47187 -32.47185 h 16.23593 16.23591 v -16.23594 -16.23591 h 16.23595 16.23593 v 16.23591 16.23594 h -16.23593 -16.23595 v 129.88746 129.88745 h -16.23591 -16.23593 v 48.70779 48.70779 h -16.23594 -16.23592 v 16.23595 16.23591 h -16.23595 -16.23594 v -32.47186 -32.47186 h -32.47184 -32.47186 v 32.47186 32.47186 h -16.23595 -16.23593 v 16.23593 16.23596 h -16.23591 -16.23594 v -48.7078 -48.70781 H 374.0323 309.08859 v 32.47186 32.47186 H 292.85265 276.6167 v 16.23593 16.23596 H 260.3808 244.14486 Z M 276.6167,349.95256 v -16.23595 h 16.23595 16.23594 V 317.4807 301.24475 H 292.85265 276.6167 v 16.23595 16.23591 H 244.14486 211.67301 V 317.4807 301.24475 h 16.23592 16.23593 v -16.23592 -16.23595 h -32.47185 -32.47189 v 32.47187 32.47186 H 162.96521 146.72928 V 317.4807 301.24475 h -16.23596 -16.23591 v 16.23595 16.23591 h 16.23591 16.23596 v 16.23595 16.23593 h 64.94373 64.94369 z M 179.20112,220.06509 v -16.23591 h -16.23591 -16.23593 v 16.23591 16.23594 h 16.23593 16.23591 z m 97.41558,0 v -16.23591 h -16.2359 -16.23594 v 16.23591 16.23594 h 16.23594 16.2359 z"
       id="path2" /></g></svg>
