<?xml version="1.0" encoding="UTF-8" standalone="no"?>
<!-- Created with Inkscape (http://www.inkscape.org/) -->

<svg
   width="16"
   height="16"
   viewBox="0 0 16 16"
   version="1.1"
   id="svg1"
   xml:space="preserve"
   inkscape:version="1.4.3 (fcd0343856, 2026-01-01)"
   sodipodi:docname="16x16.svg"
   xmlns:inkscape="http://www.inkscape.org/namespaces/inkscape"
   xmlns:sodipodi="http://sodipodi.sourceforge.net/DTD/sodipodi-0.dtd"
   xmlns="http://www.w3.org/2000/svg"
   xmlns:svg="http://www.w3.org/2000/svg"><sodipodi:namedview
     id="namedview1"
     pagecolor="#000000"
     bordercolor="#000000"
     borderopacity="0.24705882"
     inkscape:showpageshadow="2"
     inkscape:pageopacity="0.0"
     inkscape:pagecheckerboard="0"
     inkscape:deskcolor="#d1d1d1"
     inkscape:document-units="px"
     inkscape:zoom="22.627417"
     inkscape:cx="17.810252"
     inkscape:cy="7.4246212"
     inkscape:window-width="1920"
     inkscape:window-height="1011"
     inkscape:window-x="0"
     inkscape:window-y="0"
     inkscape:window-maximized="1"
     inkscape:current-layer="layer1" /><defs
     id="defs1" /><g
     inkscape:label="Layer 1"
     inkscape:groupmode="layer"
     id="layer1"><path
       style="fill:#ffffff;fill-opacity:1;stroke-width:0.204116"
       d="M 4.3041366,13.672487 V 12.447791 H 3.4876743 2.6712121 v 0.408232 0.408232 H 2.2629818 1.85475 v 0.408232 0.40823 H 1.4465179 1.0382876 V 12.856023 11.631329 H 0.63005732 0.22182539 V 7.5490183 3.4667072 H 0.63005732 1.0382876 V 2.2420131 1.0173205 H 1.4465179 1.85475 v 0.4082303 0.408232 H 2.262982 2.6712123 V 1.4255508 1.0173205 H 4.3041366 5.937061 v 0.4082303 0.408232 h 0.4082303 0.408232 V 1.4255508 1.0173205 H 7.1617552 7.5699855 V 1.8337828 2.650245 H 7.9782174 8.3864477 V 3.4667072 4.2831694 H 9.20291 10.019372 v 0.4082303 0.4082319 h 0.816463 0.816462 v 0.4082303 0.408232 h 1.224694 1.224693 V 5.0996316 4.2831694 h 0.408232 0.40823 V 3.8749375 3.4667072 h 0.40823 0.408232 v 0.4082303 0.4082319 h -0.408232 -0.40823 v 3.2658489 3.2658487 h -0.40823 -0.408232 v 1.224692 1.224696 h -0.408232 -0.40823 v 0.408232 0.40823 h -0.408231 -0.408232 v -0.816462 -0.816464 h -0.816462 -0.816462 v 0.816464 0.816462 h -0.408231 -0.408232 v 0.408231 0.408231 H 9.6111419 9.20291 V 13.672487 12.447791 H 7.5699855 5.937061 v 0.816464 0.816462 H 5.5288307 5.1205988 v 0.408231 0.408231 H 4.7123685 4.3041366 Z M 5.1205988,7.1407864 V 6.7325561 H 5.5288307 5.937061 V 6.3243258 5.9160939 H 5.5288307 5.1205988 V 6.3243258 6.7325561 H 4.3041366 3.4876743 V 6.3243258 5.9160939 h 0.4082303 0.408232 V 5.5078619 5.0996316 H 3.4876743 2.6712123 V 5.9160939 6.7325561 H 2.262982 1.85475 V 6.3243258 5.9160939 H 1.4465179 1.0382876 V 6.3243258 6.7325561 H 1.4465179 1.85475 V 7.1407864 7.5490183 H 3.4876743 5.1205988 Z M 2.6712123,3.8749375 V 3.4667072 H 2.262982 1.85475 v 0.4082303 0.4082319 h 0.408232 0.4082303 z m 2.4493865,0 V 3.4667072 H 4.7123685 4.3041366 v 0.4082303 0.4082319 h 0.4082319 0.4082303 z"
       id="path2" /></g></svg>
