<?xml version="1.0" encoding="UTF-8" standalone="no"?>
<!-- Created with Inkscape (http://www.inkscape.org/) -->

<svg
   width="32"
   height="32"
   viewBox="0 0 32 32"
   version="1.1"
   id="svg1"
   xml:space="preserve"
   inkscape:version="1.4.3 (fcd0343856, 2026-01-01)"
   sodipodi:docname="32x32.svg"
   xmlns:inkscape="http://www.inkscape.org/namespaces/inkscape"
   xmlns:sodipodi="http://sodipodi.sourceforge.net/DTD/sodipodi-0.dtd"
   xmlns="http://www.w3.org/2000/svg"
   xmlns:svg="http://www.w3.org/2000/svg"><sodipodi:namedview
     id="namedview1"
     pagecolor="#000000"
     bordercolor="#000000"
     borderopacity="0.24705882"
     inkscape:showpageshadow="2"
     inkscape:pageopacity="0.0"
     inkscape:pagecheckerboard="0"
     inkscape:deskcolor="#d1d1d1"
     inkscape:document-units="px"
     inkscape:zoom="11.313708"
     inkscape:cx="12.28598"
     inkscape:cy="3.8890873"
     inkscape:window-width="1920"
     inkscape:window-height="1011"
     inkscape:window-x="0"
     inkscape:window-y="0"
     inkscape:window-maximized="1"
     inkscape:current-layer="layer1" /><defs
     id="defs1" /><g
     inkscape:label="Layer 1"
     inkscape:groupmode="layer"
     id="layer1"><path
       style="fill:#ffffff;fill-opacity:1;stroke-width:0.400391"
       d="M 9.1135025,27.432474 V 25.030131 H 7.5119437 5.910385 v 0.800781 0.800781 H 5.1096073 4.3088266 v 0.800781 0.800778 H 3.5080453 2.7072675 v -2.40234 -2.402339 H 1.9064898 1.1057089 V 15.42078 7.4129868 H 1.9064898 2.7072675 V 5.0106473 2.6083107 H 3.5080453 4.3088266 V 3.4090884 4.2098695 H 5.1096077 5.9103854 V 3.4090884 2.6083107 h 3.2031171 3.2031165 v 0.8007777 0.8007811 h 0.800778 0.800781 V 3.4090884 2.6083107 h 0.800781 0.800778 v 1.6015588 1.6015587 h 0.800781 0.800777 v 1.6015586 1.6015587 h 1.601559 1.601559 v 0.8007777 0.8007808 h 1.60156 1.601558 v 0.800778 0.80078 h 2.402339 2.402337 V 10.616104 9.0145455 h 0.800782 0.800777 V 8.2137646 7.4129868 h 0.800777 0.800781 v 0.8007778 0.8007809 h -0.800781 -0.800777 v 6.4062345 6.406235 h -0.800777 -0.800782 v 2.402335 2.402343 H 27.531426 26.73065 v 0.800781 0.800778 h -0.80078 -0.800781 v -1.601559 -1.601562 h -1.601558 -1.601558 v 1.601562 1.601559 h -0.80078 -0.80078 v 0.800778 0.800779 h -0.800778 -0.800781 v -2.402335 -2.402343 h -3.203117 -3.203118 v 1.601562 1.601559 h -0.800777 -0.800781 v 0.800778 0.800779 H 9.9142834 9.1135025 Z M 10.715061,14.619999 v -0.800777 h 0.800781 0.800777 v -0.800778 -0.800782 h -0.800777 -0.800781 v 0.800782 0.800778 H 9.1135025 7.5119437 v -0.800778 -0.800782 h 0.8007777 0.8007811 v -0.80078 -0.800778 H 7.5119437 5.9103854 v 1.601558 1.60156 H 5.1096077 4.3088266 V 13.018444 12.217662 H 3.5080453 2.7072675 v 0.800782 0.800778 h 0.8007778 0.8007813 v 0.800777 0.800781 H 7.5119437 10.715061 Z M 5.9103854,8.2137646 V 7.4129868 H 5.1096077 4.3088266 v 0.8007778 0.8007809 h 0.8007811 0.8007777 z m 4.8046756,0 V 7.4129868 H 9.9142834 9.1135025 v 0.8007778 0.8007809 h 0.8007809 0.8007776 z"
       id="path2" /></g></svg>
